<svg width="210" height="82" viewBox="0 0 210 82" fill="none" xmlns="http://www.w3.org/2000/svg">
<path d="M58.4531 1.70312C56.4219 5.75 54.4141 9.875 52.4297 14.0781C51.1953 16.6562 49.9609 19.2266 48.7266 21.7891C46.7266 28.7109 45.2891 35.7188 44.4141 42.8125C43.5391 49.9062 43.2344 56.0234 43.5 61.1641C43.6094 63.3516 43.8203 65.5938 44.1328 67.8906C44.4609 70.1875 45.0078 72.4062 45.7734 74.5469C46.5547 76.6875 47.6797 78.6094 49.1484 80.3125C49.3672 80.5781 49.4219 80.8438 49.3125 81.1094C49.2188 81.3906 49.0391 81.5781 48.7734 81.6719C48.5078 81.7812 48.2344 81.7109 47.9531 81.4609C47.3125 80.7734 46.7422 80.0391 46.2422 79.2578C44.1172 75.6016 42.7578 70.9922 42.1641 65.4297C41.5703 59.8828 41.5703 53.9141 42.1641 47.5234C42.7734 41.1484 43.7969 34.8906 45.2344 28.75C43.5781 32.0469 41.875 35.3203 40.125 38.5703C38.375 41.8203 36.5156 45 34.5469 48.1094C34.4062 48.3125 34.2578 48.5234 34.1016 48.7422C33.3984 49.8359 32.5156 51.0781 31.4531 52.4688C30.3906 53.8594 29.2422 55.0156 28.0078 55.9375C26.7734 56.8594 25.5391 57.1797 24.3047 56.8984C23.7109 56.6641 23.3203 56.125 23.1328 55.2812C22.9453 54.4531 22.8594 53.5234 22.875 52.4922C22.9062 51.4766 22.9688 50.5625 23.0625 49.75C23.0938 49.3594 23.1172 49.0312 23.1328 48.7656C23.5078 45.2812 23.9766 41.8203 24.5391 38.3828C24.8672 36.1953 25.2188 34 25.5938 31.7969C26.0938 28.9219 26.5469 26.0469 26.9531 23.1719C27.375 20.2812 27.6641 17.375 27.8203 14.4531C27.8359 14.2656 27.8516 14.0625 27.8672 13.8438C27.8984 13.4844 27.9141 13.1406 27.9141 12.8125C27.9141 12.4844 27.8594 12.25 27.75 12.1094C26.5 11.5938 25.1953 11.7969 23.8359 12.7188C22.4922 13.6406 21.1641 15.0078 19.8516 16.8203C18.5547 18.6172 17.3359 20.5625 16.1953 22.6562C15.0703 24.75 14.0859 26.7109 13.2422 28.5391C12.4141 30.3516 11.7969 31.7422 11.3906 32.7109C7.65625 41.6016 4.42188 50.6797 1.6875 59.9453C1.57812 60.2422 1.38281 60.4141 1.10156 60.4609C0.835938 60.5234 0.59375 60.4688 0.375 60.2969C0.15625 60.1406 0.0625 59.8984 0.09375 59.5703C0.09375 59.5703 0.140625 59.25 0.234375 58.6094C0.328125 57.9844 0.4375 57.2109 0.5625 56.2891C0.703125 55.3672 0.84375 54.4453 0.984375 53.5234C1.125 52.6172 1.24219 51.8438 1.33594 51.2031C1.42969 50.5781 1.47656 50.2656 1.47656 50.2656C1.92969 47.1875 2.34375 44.1016 2.71875 41.0078C3.09375 37.9141 3.375 34.8125 3.5625 31.7031C3.73438 28.6094 3.6875 25.5234 3.42188 22.4453C3.42188 22.0859 3.54688 21.8359 3.79688 21.6953C4.04688 21.5547 4.30469 21.5312 4.57031 21.625C4.85156 21.7188 5.01562 21.9453 5.0625 22.3047C5.40625 27.1484 5.32812 32.0312 4.82812 36.9531C4.34375 41.8594 3.71094 46.75 2.92969 51.625C5.27344 45.1094 7.82031 38.6797 10.5703 32.3359C11.8984 29.2891 13.3281 26.2812 14.8594 23.3125C16.3906 20.3281 18.1484 17.4844 20.1328 14.7812C20.7578 13.9219 21.4922 13.0859 22.3359 12.2734C23.1953 11.4609 24.1328 10.8594 25.1484 10.4688C26.1641 10.0781 27.2422 10.0938 28.3828 10.5156C28.3828 10.5156 28.4375 10.5547 28.5469 10.6328C28.6562 10.6953 28.7969 10.8281 28.9688 11.0312C29.1406 11.2344 29.3125 11.5391 29.4844 11.9453C29.6562 12.3516 29.8203 12.8828 29.9766 13.5391C30.1797 14.8203 30.1797 16.1016 29.9766 17.3828C29.9453 17.6016 29.9219 17.8203 29.9062 18.0391C29.4062 22.2734 28.7578 26.4688 27.9609 30.625C27.8828 31.0469 27.8047 31.4609 27.7266 31.8672C27.5078 33.0547 27.2812 34.2891 27.0469 35.5703C26.1562 40.1641 25.4141 44.625 24.8203 48.9531C24.5703 50.6406 24.4609 52.3281 24.4922 54.0156C24.5078 54.2812 24.5391 54.5469 24.5859 54.8125C24.6328 55.0781 24.7109 55.3047 24.8203 55.4922C26.1484 55.5547 27.6797 54.6562 29.4141 52.7969C31.1641 50.9531 33.0156 48.4531 34.9688 45.2969C36.9375 42.1406 38.9141 38.6406 40.8984 34.7969C42.8984 30.9375 44.8281 27.0469 46.6875 23.125C48.7969 15.6719 51.1953 9.66406 53.8828 5.10156C54.7734 3.55469 55.8516 2.10937 57.1172 0.765625C57.2891 0.59375 57.4844 0.507812 57.7031 0.507812C57.9219 0.507812 58.1172 0.585937 58.2891 0.742188C58.5547 1.03906 58.6094 1.35937 58.4531 1.70312ZM72.2109 37.5625C72.3672 37.75 72.3438 37.9609 72.1406 38.1953C71.9531 38.4297 71.7266 38.6562 71.4609 38.875C71.2734 39.0312 71.1406 39.1562 71.0625 39.25C70.4688 39.7812 69.4844 40.4844 68.1094 41.3594C66.7344 42.2344 65.2266 43.0469 63.5859 43.7969C61.9453 44.5469 60.4453 45 59.0859 45.1562C57.7266 45.3125 56.7734 44.9453 56.2266 44.0547C55.7109 42.7422 55.6016 41.375 55.8984 39.9531C56.1797 38.5156 56.7422 37.2422 57.5859 36.1328C58.0859 35.5391 58.6875 35.2109 59.3906 35.1484C60.0938 35.0859 60.5312 35.5078 60.7031 36.4141C60.8125 36.8672 60.6797 37.3672 60.3047 37.9141C59.9297 38.4453 59.4609 38.9375 58.8984 39.3906C58.3516 39.8438 57.875 40.1562 57.4688 40.3281C57.2812 41.3125 57.2266 42.1484 57.3047 42.8359C57.4297 43.8359 58.0234 44.3203 59.0859 44.2891C60.1641 44.2578 61.4141 43.9531 62.8359 43.375C64.2734 42.7812 65.6094 42.1328 66.8438 41.4297C68.0781 40.7266 68.9297 40.1953 69.3984 39.8359C70.2891 39.2109 71.0781 38.4766 71.7656 37.6328C71.8281 37.5547 71.8984 37.5156 71.9766 37.5156C72.0703 37.5 72.1484 37.5156 72.2109 37.5625ZM59.25 36.9062C58.5469 37.3906 58.0391 38.1875 57.7266 39.2969C58.1172 38.9375 58.4766 38.5391 58.8047 38.1016C59.1328 37.6484 59.2812 37.25 59.25 36.9062ZM99.2578 14.875C99.4609 14.625 99.6953 14.5078 99.9609 14.5234C100.242 14.5391 100.477 14.6484 100.664 14.8516C100.852 15.0547 100.914 15.3203 100.852 15.6484C100.477 16.6953 100.016 17.7188 99.4688 18.7188C99.25 19.1406 99.0391 19.5625 98.8359 19.9844C96.9766 23.6406 95.0078 27.2344 92.9297 30.7656C92.3984 32.0938 91.8672 33.4297 91.3359 34.7734C91.2734 34.9609 91.2031 35.1562 91.125 35.3594C90.2344 37.7344 89.4219 40.1406 88.6875 42.5781C87.9531 45 87.4688 47.4766 87.2344 50.0078C87.1719 50.6328 87.1562 51.2656 87.1875 51.9062C87.2188 52.5469 87.3516 53.1562 87.5859 53.7344C87.7422 54.0781 87.9688 54.3359 88.2656 54.5078C88.4219 54.6172 88.4922 54.7422 88.4766 54.8828C88.4766 55.0391 88.4141 55.1641 88.2891 55.2578C88.1641 55.3516 88.0156 55.3594 87.8438 55.2812C86.9062 54.6562 86.3906 53.5469 86.2969 51.9531C86.2188 50.375 86.3359 48.6953 86.6484 46.9141C86.9766 45.1484 87.2891 43.6797 87.5859 42.5078C87.6328 42.3203 87.6719 42.1484 87.7031 41.9922C88.2969 39.5078 89.0078 37.0547 89.8359 34.6328C88.4766 36.2422 87.0547 37.7969 85.5703 39.2969C84.0859 40.7969 82.4688 42.1484 80.7188 43.3516C79.8281 43.9453 78.9844 44.2656 78.1875 44.3125C77.4062 44.3438 76.6094 43.9531 75.7969 43.1406C75.2344 42.5 74.875 41.7578 74.7188 40.9141C74.25 41.6016 73.7656 42.2812 73.2656 42.9531C72.75 43.6406 72.2266 44.3281 71.6953 45.0156C71.3203 45.5312 70.8125 45.8516 70.1719 45.9766C69.5156 46.0078 69.0703 45.7812 68.8359 45.2969C68.6016 44.7969 68.5781 44.2656 68.7656 43.7031C69.4531 41.0156 70.7656 38.6719 72.7031 36.6719C73.3594 36 74.1562 35.4609 75.0938 35.0547C75.5 34.9297 75.8203 34.9844 76.0547 35.2188C76.2891 35.4375 76.3984 35.7109 76.3828 36.0391C76.3672 36.3672 76.1641 36.6172 75.7734 36.7891C74.6484 37.3359 73.6797 38.1719 72.8672 39.2969C72.0703 40.4062 71.4453 41.5938 70.9922 42.8594C72.2734 41.1875 73.4766 39.4688 74.6016 37.7031C74.7734 37.4219 75 37.2734 75.2812 37.2578C75.5625 37.2422 75.8125 37.3281 76.0312 37.5156C76.25 37.7031 76.3438 37.9531 76.3125 38.2656C76.0156 39.2188 75.9297 40.1641 76.0547 41.1016C76.1797 42.0391 76.7266 42.7578 77.6953 43.2578C78.6328 43.4609 79.9062 42.9766 81.5156 41.8047C83.125 40.6172 84.75 39.1797 86.3906 37.4922C88.0469 35.7891 89.3906 34.2734 90.4219 32.9453C91.5 30.0234 92.6797 27.1484 93.9609 24.3203C94.7109 22.6797 95.5156 21.0625 96.375 19.4688C97.2344 17.875 98.1953 16.3438 99.2578 14.875ZM156.516 3.01562C157.891 3.3125 158.781 3.95312 159.188 4.9375C159.609 5.90625 159.703 6.99219 159.469 8.19531C159.25 9.38281 158.859 10.4609 158.297 11.4297C157.984 11.8828 157.617 12.0859 157.195 12.0391C156.789 11.9922 156.469 11.7969 156.234 11.4531C156.016 11.0938 156.039 10.6875 156.305 10.2344C156.633 9.75 156.93 9.17969 157.195 8.52344C157.477 7.85156 157.617 7.19531 157.617 6.55469C157.633 5.91406 157.383 5.39844 156.867 5.00781C156.508 4.80469 156.109 4.70312 155.672 4.70312C155.25 4.6875 154.828 4.71094 154.406 4.77344C153.734 4.86719 153.07 4.97656 152.414 5.10156C148.367 5.97656 144.422 7.17969 140.578 8.71094C136.406 10.3672 131.93 12.4219 127.148 14.875C122.367 17.3125 117.859 20.1094 113.625 23.2656C109.406 26.4062 106.023 29.8438 103.477 33.5781C102.836 34.6094 102.344 35.7188 102 36.9062C101.656 38.0938 101.602 39.25 101.836 40.375C102.07 41.4844 102.734 42.4531 103.828 43.2812C104.906 44.0469 106.07 44.6719 107.32 45.1562C108.57 45.625 109.844 46.0469 111.141 46.4219C112.469 46.7969 113.773 47.2266 115.055 47.7109C115.227 47.7891 115.398 47.8594 115.57 47.9219C119.883 44.2812 124.492 41.2656 129.398 38.875C130.367 38.4375 131.375 38.0625 132.422 37.75C132.703 37.6719 132.922 37.7266 133.078 37.9141C133.234 38.0859 133.289 38.2891 133.242 38.5234C133.211 38.7578 133.055 38.9219 132.773 39.0156C130.773 39.5469 128.852 40.2891 127.008 41.2422C125.18 42.1953 123.414 43.25 121.711 44.4062C119.93 45.6562 118.18 46.9688 116.461 48.3438C117.289 48.7344 118.023 49.25 118.664 49.8906C119.633 50.9375 120.242 52.1484 120.492 53.5234C120.758 54.8984 120.703 56.2578 120.328 57.6016C119.906 59.0859 119.234 60.4375 118.312 61.6562C117.406 62.8906 116.391 64.0156 115.266 65.0312C113.391 66.7031 111.375 68.1875 109.219 69.4844C107.062 70.7812 104.773 71.7969 102.352 72.5312C101.555 72.75 100.656 72.8672 99.6562 72.8828C98.6719 72.8984 97.9062 72.5547 97.3594 71.8516C96.9375 70.9453 97.0234 69.8125 97.6172 68.4531C98.2109 67.1094 98.9844 65.7656 99.9375 64.4219C100.906 63.0938 101.742 62 102.445 61.1406C102.555 61 102.656 60.8672 102.75 60.7422C105.922 57.0078 109.391 53.4297 113.156 50.0078C112.438 49.7578 111.695 49.5078 110.93 49.2578C108.773 48.5859 106.711 47.7812 104.742 46.8438C102.773 45.9062 101.273 44.625 100.242 43C99.2266 41.375 99.0625 39.2031 99.75 36.4844C100.703 33.5312 102.625 30.625 105.516 27.7656C108.422 24.8906 111.906 22.1562 115.969 19.5625C120.031 16.9531 124.289 14.5703 128.742 12.4141C133.211 10.2578 137.484 8.42188 141.562 6.90625C145.641 5.375 149.141 4.25781 152.062 3.55469C152.312 3.50781 152.562 3.45313 152.812 3.39062C154.016 3.04687 155.25 2.92188 156.516 3.01562ZM116.602 51.8594C115.883 51.2031 115.031 50.6953 114.047 50.3359C108.516 55.0078 103.773 60.3438 99.8203 66.3438C99.8047 66.3906 99.7812 66.4375 99.75 66.4844C99.5 66.8906 99.2188 67.4141 98.9062 68.0547C98.5938 68.6953 98.3672 69.3203 98.2266 69.9297C98.0859 70.5391 98.1562 71.0234 98.4375 71.3828C99.4219 71.7578 100.617 71.6797 102.023 71.1484C103.43 70.6172 104.875 69.8516 106.359 68.8516C107.859 67.8516 109.234 66.8125 110.484 65.7344C111.75 64.6719 112.719 63.7812 113.391 63.0625C114.391 62.0625 115.297 60.9844 116.109 59.8281C116.938 58.6719 117.477 57.3984 117.727 56.0078C117.836 55.2734 117.805 54.5312 117.633 53.7812C117.461 53.0469 117.117 52.4062 116.602 51.8594ZM148.055 37.5625C148.211 37.75 148.188 37.9609 147.984 38.1953C147.797 38.4297 147.57 38.6562 147.305 38.875C147.117 39.0312 146.984 39.1562 146.906 39.25C146.312 39.7812 145.328 40.4844 143.953 41.3594C142.578 42.2344 141.07 43.0469 139.43 43.7969C137.789 44.5469 136.289 45 134.93 45.1562C133.57 45.3125 132.617 44.9453 132.07 44.0547C131.555 42.7422 131.445 41.375 131.742 39.9531C132.023 38.5156 132.586 37.2422 133.43 36.1328C133.93 35.5391 134.531 35.2109 135.234 35.1484C135.938 35.0859 136.375 35.5078 136.547 36.4141C136.656 36.8672 136.523 37.3672 136.148 37.9141C135.773 38.4453 135.305 38.9375 134.742 39.3906C134.195 39.8438 133.719 40.1562 133.312 40.3281C133.125 41.3125 133.07 42.1484 133.148 42.8359C133.273 43.8359 133.867 44.3203 134.93 44.2891C136.008 44.2578 137.258 43.9531 138.68 43.375C140.117 42.7812 141.453 42.1328 142.688 41.4297C143.922 40.7266 144.773 40.1953 145.242 39.8359C146.133 39.2109 146.922 38.4766 147.609 37.6328C147.672 37.5547 147.742 37.5156 147.82 37.5156C147.914 37.5 147.992 37.5156 148.055 37.5625ZM135.094 36.9062C134.391 37.3906 133.883 38.1875 133.57 39.2969C133.961 38.9375 134.32 38.5391 134.648 38.1016C134.977 37.6484 135.125 37.25 135.094 36.9062ZM163.992 37.6797C164.055 37.5703 164.141 37.5234 164.25 37.5391C164.359 37.5547 164.445 37.6094 164.508 37.7031C164.57 37.7812 164.57 37.875 164.508 37.9844C164.055 38.625 163.531 39.1953 162.938 39.6953C162.344 40.1797 161.727 40.6406 161.086 41.0781C160.977 41.1562 160.875 41.2266 160.781 41.2891C159.234 42.3516 157.742 43.1719 156.305 43.75C154.867 44.3125 153.617 44.4219 152.555 44.0781C151.508 43.7188 150.773 42.6719 150.352 40.9375C149.32 42.4688 148.211 43.9453 147.023 45.3672C146.398 45.9922 145.758 46.1719 145.102 45.9062C144.43 45.625 144.164 45.0312 144.305 44.125C144.945 41.2812 146.281 38.8125 148.312 36.7188C148.969 36.0469 149.773 35.5078 150.727 35.1016C151.102 34.9609 151.406 35.0078 151.641 35.2422C151.891 35.4766 152.008 35.7656 151.992 36.1094C151.977 36.4375 151.781 36.6797 151.406 36.8359C150.234 37.4297 149.25 38.2734 148.453 39.3672C147.672 40.4453 147.062 41.6172 146.625 42.8828C147.906 41.2266 149.102 39.5078 150.211 37.7266C150.383 37.4609 150.609 37.3203 150.891 37.3047C151.188 37.2891 151.438 37.375 151.641 37.5625C151.859 37.75 151.961 38 151.945 38.3125C151.633 39.2656 151.547 40.25 151.688 41.2656C151.844 42.2656 152.438 42.9688 153.469 43.375C155.016 43.3594 156.578 42.9219 158.156 42.0625C159.734 41.2031 161.141 40.2969 162.375 39.3438C163.016 38.875 163.555 38.3203 163.992 37.6797ZM171.82 38.6641C171.93 38.7422 172.062 38.7891 172.219 38.8047C172.391 38.8203 172.57 38.8281 172.758 38.8281C172.961 38.8125 173.133 38.8203 173.273 38.8516C173.43 38.8672 173.516 38.9375 173.531 39.0625C173.469 39.25 173.289 39.3828 172.992 39.4609C172.711 39.5234 172.406 39.5469 172.078 39.5312C171.75 39.5156 171.492 39.4688 171.305 39.3906C170.805 39.1406 170.453 38.7969 170.25 38.3594C170.047 37.9062 169.953 37.4141 169.969 36.8828C168.391 38.2422 167.023 39.8047 165.867 41.5703C164.727 43.3359 163.75 45.1719 162.938 47.0781C162.891 47.2031 162.812 47.2969 162.703 47.3594C162.578 47.4219 162.445 47.4219 162.305 47.3594C162.18 47.2969 162.102 47.1953 162.07 47.0547C162.023 46.9297 162 46.7969 162 46.6562C162 46.5156 161.984 46.3906 161.953 46.2812C161.766 43.2031 162.445 40.3359 163.992 37.6797C164.211 37.3672 164.477 37.2266 164.789 37.2578C165.102 37.2891 165.359 37.4297 165.562 37.6797C165.766 37.9297 165.789 38.2266 165.633 38.5703C165.227 39.3828 164.898 40.2109 164.648 41.0547C166.195 38.2109 168.266 35.8281 170.859 33.9062C171.141 33.7188 171.414 33.6797 171.68 33.7891C171.961 33.8984 172.156 34.0859 172.266 34.3516C172.391 34.6172 172.352 34.8906 172.148 35.1719C171.82 35.6719 171.555 36.2734 171.352 36.9766C171.148 37.6797 171.305 38.2422 171.82 38.6641ZM208.945 37.4922C209.023 37.5703 209.062 37.6641 209.062 37.7734C209.078 37.8672 209.047 37.9531 208.969 38.0312C208.344 38.6562 207.711 39.2578 207.07 39.8359C206.93 39.9609 206.789 40.0859 206.648 40.2109C205.742 41.0234 204.773 41.7891 203.742 42.5078C202.727 43.2266 201.625 43.7188 200.438 43.9844C199.688 44.0938 198.992 43.9375 198.352 43.5156C197.727 43.0781 197.289 42.5078 197.039 41.8047C196.68 40.5547 196.68 39.3125 197.039 38.0781C195.977 38.8125 194.922 39.625 193.875 40.5156C192.828 41.4062 191.922 42.3516 191.156 43.3516C190.688 44.6953 190.195 46.0156 189.68 47.3125C189.633 47.4844 189.539 47.5859 189.398 47.6172C189.258 47.6641 189.125 47.6484 189 47.5703C188.875 47.5078 188.805 47.3906 188.789 47.2188C188.711 45.8438 189.031 44.5703 189.75 43.3984C190.438 40.8047 191.211 38.2344 192.07 35.6875C192.617 34.1875 193.195 32.6562 193.805 31.0938C190.742 35.875 186.992 40.0391 182.555 43.5859C182.445 43.6641 182.328 43.75 182.203 43.8438C181.531 44.3594 180.758 44.9062 179.883 45.4844C179.008 46.0625 178.109 46.5234 177.188 46.8672C176.266 47.2109 175.391 47.2891 174.562 47.1016C173.562 46.6328 173.102 45.8438 173.18 44.7344C173.242 43.6094 173.555 42.4531 174.117 41.2656C174.68 40.0781 175.195 39.1562 175.664 38.5C176.039 37.9219 176.523 37.3047 177.117 36.6484C177.727 35.9922 178.391 35.4922 179.109 35.1484C179.844 34.8047 180.594 34.8281 181.359 35.2188C181.672 35.4844 181.805 35.7734 181.758 36.0859C181.727 36.3984 181.57 36.6406 181.289 36.8125C181.023 36.9844 180.711 36.9844 180.352 36.8125C179.789 36.875 179.203 37.2266 178.594 37.8672C178 38.5078 177.523 39.0703 177.164 39.5547C176.57 40.3672 176.039 41.2266 175.57 42.1328C175.102 43.0391 174.773 43.9844 174.586 44.9688C174.586 45 174.578 45.0391 174.562 45.0859C174.516 45.3359 174.5 45.5781 174.516 45.8125C174.516 46.0469 174.625 46.2344 174.844 46.375C175.25 46.5156 175.672 46.5391 176.109 46.4453C176.531 46.3672 176.945 46.25 177.352 46.0938C177.352 46.0938 177.359 46.0938 177.375 46.0938C179.516 45.125 181.734 43.6016 184.031 41.5234C186.344 39.4453 188.469 37.1797 190.406 34.7266C192.359 32.2734 193.891 30 195 27.9062C195.062 27.7656 195.133 27.625 195.211 27.4844C195.211 27.4688 195.211 27.4609 195.211 27.4609C195.227 27.4453 195.234 27.4297 195.234 27.4141C195.234 27.3984 195.242 27.375 195.258 27.3438C195.602 26.4531 195.953 25.5625 196.312 24.6719C196.5 24.3125 196.75 24.125 197.062 24.1094C197.391 24.0781 197.664 24.1797 197.883 24.4141C198.117 24.6484 198.172 24.9609 198.047 25.3516C197.312 27.3047 196.531 29.2656 195.703 31.2344C195.016 32.9219 194.344 34.6016 193.688 36.2734C193.219 37.5078 192.766 38.7656 192.328 40.0469C193.281 39.0625 194.289 38.1406 195.352 37.2812C196.383 36.4219 197.43 35.6094 198.492 34.8438C198.711 34.6875 198.938 34.6328 199.172 34.6797C199.422 34.7109 199.625 34.8281 199.781 35.0312C200.031 35.4219 200.031 35.7969 199.781 36.1562C199.234 36.7344 198.781 37.3906 198.422 38.125C197.953 39 197.734 39.9453 197.766 40.9609C197.797 41.9766 198.289 42.7422 199.242 43.2578C200.195 43.5234 201.172 43.3906 202.172 42.8594C203.172 42.3281 204.047 41.7578 204.797 41.1484C205.469 40.6172 206.109 40.0469 206.719 39.4375C207.328 38.8438 207.898 38.2188 208.43 37.5625C208.508 37.4844 208.594 37.4375 208.688 37.4219C208.781 37.4062 208.867 37.4297 208.945 37.4922Z" fill="#443133"/>
</svg>
